<svg width="17" height="18" viewBox="0 0 17 18" fill="none"
    xmlns="http://www.w3.org/2000/svg">
    <path fill-rule="evenodd" clip-rule="evenodd" d="M15.6885 4.71642C15.6885 3.13097 14.5671 2.01172 12.9791 2.01172H4.0209C2.43286 2.01172 1.31152 3.13097 1.31152 4.71642V15.4024C1.31152 15.9231 1.88058 16.2447 2.32777 15.9767L4.50474 14.4515H12.9786C14.5666 14.4515 15.6885 13.3322 15.6885 11.7468V4.71642ZM8.59603 12.0592C8.91364 12.0592 9.17111 11.8022 9.17111 11.4851V8.90143H11.7588C12.0764 8.90143 12.3339 8.64438 12.3339 8.32729C12.3339 8.0102 12.0764 7.75315 11.7588 7.75315H9.17111V4.97812C9.17111 4.66103 8.91364 4.40398 8.59603 4.40398C8.27843 4.40398 8.02096 4.66103 8.02096 4.97812V7.75315H5.24122C4.92362 7.75315 4.66615 8.0102 4.66615 8.32729C4.66615 8.64438 4.92362 8.90143 5.24122 8.90143H8.02096V11.4851C8.02096 11.8022 8.27843 12.0592 8.59603 12.0592Z" />
</svg>
