<svg width="16" height="16" viewBox="0 0 16 16" fill="none"
  xmlns="http://www.w3.org/2000/svg">
  <path d="M12.1761 3.07266C10.7042 1.60078 8.30734 1.60078 6.83703 3.07266L2.7589 7.14766C2.73234 7.17422 2.71828 7.21016 2.71828 7.24766C2.71828 7.28516 2.73234 7.32109 2.7589 7.34766L3.33546 7.92422C3.36182 7.95046 3.39749 7.96519 3.43468 7.96519C3.47187 7.96519 3.50755 7.95046 3.5339 7.92422L7.61203 3.84922C8.11828 3.34297 8.79171 3.06484 9.50734 3.06484C10.223 3.06484 10.8964 3.34297 11.4011 3.84922C11.9073 4.35547 12.1855 5.02891 12.1855 5.74297C12.1855 6.45859 11.9073 7.13047 11.4011 7.63672L7.24484 11.7914L6.5714 12.4648C5.94171 13.0945 4.91828 13.0945 4.28859 12.4648C3.9839 12.1602 3.81671 11.7555 3.81671 11.3242C3.81671 10.893 3.9839 10.4883 4.28859 10.1836L8.41203 6.06172C8.51671 5.95859 8.65421 5.90078 8.80109 5.90078H8.80265C8.94953 5.90078 9.08546 5.95859 9.18859 6.06172C9.29328 6.16641 9.34953 6.30391 9.34953 6.45078C9.34953 6.59609 9.29171 6.73359 9.18859 6.83672L5.81828 10.2039C5.79171 10.2305 5.77765 10.2664 5.77765 10.3039C5.77765 10.3414 5.79171 10.3773 5.81828 10.4039L6.39484 10.9805C6.42119 11.0067 6.45687 11.0214 6.49406 11.0214C6.53125 11.0214 6.56692 11.0067 6.59328 10.9805L9.96203 7.61172C10.273 7.30078 10.4433 6.88828 10.4433 6.44922C10.4433 6.01016 10.2714 5.59609 9.96203 5.28672C9.31984 4.64453 8.27609 4.64609 7.6339 5.28672L7.2339 5.68828L3.51203 9.40859C3.25942 9.65972 3.05918 9.9585 2.92293 10.2876C2.78667 10.6167 2.71711 10.9696 2.71828 11.3258C2.71828 12.0492 3.00109 12.7289 3.51203 13.2398C4.04171 13.768 4.73546 14.032 5.42921 14.032C6.12296 14.032 6.81671 13.768 7.34484 13.2398L12.1761 8.41172C12.887 7.69922 13.2808 6.75078 13.2808 5.74297C13.2823 4.73359 12.8886 3.78516 12.1761 3.07266Z" fill="#323C47"/>
</svg>
