<svg width="15" height="15" viewBox="0 0 15 15" fill="none" xmlns="http://www.w3.org/2000/svg">
<path fill-rule="evenodd" clip-rule="evenodd" d="M9.62402 5.01583C10.0771 5.01583 10.4443 5.3831 10.4443 5.83615V13.1743C10.4443 13.6354 9.91591 13.8966 9.54962 13.6165L8.03511 12.4587H1.52344C1.07039 12.4587 0.703127 12.0914 0.703125 11.6384V5.83615C0.703125 5.3831 1.07039 5.01583 1.52344 5.01583H9.62402ZM1.75781 11.404H8.11443C8.28889 11.404 8.45864 11.4596 8.59915 11.5625L8.61265 11.5726L9.38965 12.1666V6.07052H1.75781V11.404Z" fill="#323C47"/>
<path d="M11.8506 3.14083C12.1418 3.14083 12.3779 3.37693 12.3779 3.66818V11.5637C12.3779 11.8549 12.1418 12.091 11.8506 12.091C11.5593 12.091 11.3232 11.8549 11.3232 11.5637V4.19552H3.01758C2.72633 4.19552 2.49023 3.95942 2.49023 3.66818C2.49023 3.37693 2.72633 3.14083 3.01758 3.14083H11.8506Z" fill="#323C47"/>
<path d="M13.7695 1.24609C14.0608 1.2461 14.2969 1.4822 14.2969 1.77344V10.0609C14.2969 10.3522 14.0608 10.5883 13.7695 10.5883C13.4783 10.5883 13.2422 10.3522 13.2422 10.0609V2.30078H4.63481C4.34357 2.30078 4.10747 2.06468 4.10747 1.77344C4.10747 1.48219 4.34357 1.24609 4.63481 1.24609H13.7695Z" fill="#323C47"/>
</svg>
