<svg width="17" height="17" viewBox="0 0 17 17" fill="none" xmlns="http://www.w3.org/2000/svg">
<path d="M13.8789 14.1602H13.8785C13.8788 14.1657 13.8789 14.1712 13.8789 14.1768C13.8789 14.9286 11.4707 15.5381 8.5 15.5381C5.52931 15.5381 3.12109 14.9286 3.12109 14.1768C3.12109 14.1712 3.12124 14.1657 3.1215 14.1602H3.12109V11.2549C3.12109 12.0067 5.52931 12.6162 8.5 12.6162C11.4707 12.6162 13.8789 12.0067 13.8789 11.2549V14.1602Z" fill="#8D9AB2"/>
<path d="M13.8789 10.375C13.8789 10.5305 13.7759 10.6798 13.5863 10.8189C13.5848 10.8201 13.5833 10.8212 13.5817 10.8223C13.4822 10.8947 13.3591 10.9644 13.2148 11.0307V11.0307C12.2996 11.4513 10.5313 11.7363 8.5 11.7363C6.46869 11.7363 4.70038 11.4513 3.78516 11.0307V11.0307C3.6402 10.9641 3.51664 10.8941 3.41683 10.8212C3.41615 10.8208 3.41548 10.8203 3.41481 10.8198C3.22448 10.6804 3.12109 10.5308 3.12109 10.375V7.48633C3.12109 8.23817 5.52931 8.84766 8.5 8.84766C11.4707 8.84766 13.8789 8.23817 13.8789 7.48633V10.375Z" fill="#8D9AB2"/>
<path d="M13.8789 6.60645C13.8789 6.76191 13.7759 6.91125 13.5863 7.05039C13.5848 7.0515 13.5833 7.05261 13.5817 7.05371C13.4822 7.12616 13.3591 7.19584 13.2148 7.26214V7.26217C12.2996 7.68278 10.5313 7.96777 8.5 7.96777C6.46869 7.96777 4.70038 7.68279 3.78516 7.26219V7.26214C3.6402 7.19553 3.51664 7.12551 3.41683 7.05269C3.41615 7.0522 3.41548 7.05171 3.41481 7.05122C3.22448 6.91184 3.12109 6.76221 3.12109 6.60645V3.71777C3.12109 4.46961 5.52931 5.0791 8.5 5.0791C11.4707 5.0791 13.8789 4.46961 13.8789 3.71777V6.60645Z" fill="#8D9AB2"/>
<path d="M8.5 1.47656C11.4707 1.47656 13.8789 2.08605 13.8789 2.83789C13.8789 2.84154 13.8788 2.84518 13.8787 2.84882C13.8786 2.85071 13.8786 2.8526 13.8785 2.85449C13.8714 3.00399 13.7692 3.14765 13.5863 3.28184C13.5848 3.28295 13.5833 3.28405 13.5817 3.28516C13.4822 3.35761 13.3591 3.42729 13.2148 3.49359V3.49362C12.2996 3.91422 10.5313 4.19922 8.5 4.19922C6.46869 4.19922 4.70038 3.91423 3.78516 3.49364V3.49359C3.6402 3.42697 3.51664 3.35696 3.41683 3.28414C3.41615 3.28365 3.41548 3.28315 3.41481 3.28266C3.23125 3.14825 3.12857 3.00429 3.1215 2.85449C3.12141 2.85256 3.12133 2.85062 3.12127 2.84869C3.12116 2.84509 3.12109 2.84149 3.12109 2.83789C3.12109 2.08605 5.52931 1.47656 8.5 1.47656Z" fill="#8D9AB2"/>
</svg>
