<svg width="14" height="14" viewBox="0 0 14 14" fill="none" xmlns="http://www.w3.org/2000/svg">
<g clip-path="url(#clip0_3238_34075)">
<path d="M7.28438 1.83892C7.11813 1.35505 6.84688 1.35592 6.68238 1.84067L5.75488 4.57505C5.5895 5.0598 5.05925 5.59005 4.5745 5.75542L1.86025 6.67855C1.3755 6.84305 1.37463 7.11605 1.85763 7.28405L4.55613 8.22292C5.03913 8.39092 5.57113 8.92467 5.73738 9.40855L6.67888 12.1455C6.84513 12.6294 7.11463 12.6285 7.27825 12.1438L8.19788 9.41817C8.3615 8.93342 8.89088 8.40142 9.37475 8.23605L12.1319 7.29105C12.6158 7.12567 12.6158 6.85617 12.131 6.69255L9.41763 5.7738C8.93288 5.61017 8.4 5.0808 8.23375 4.59692L7.28438 1.83892Z" fill="#B8C3D7"/>
<path d="M12.0811 1.52556C12.0339 1.38731 11.956 1.38731 11.9088 1.52556L11.6436 2.30781C11.6129 2.38367 11.5673 2.45258 11.5094 2.51045C11.4515 2.56832 11.3826 2.61397 11.3068 2.64469L10.5315 2.90806C10.3933 2.95531 10.3924 3.03319 10.5315 3.08131L11.3015 3.34994C11.3774 3.38127 11.4463 3.42732 11.5043 3.48545C11.5622 3.54357 11.6081 3.6126 11.6393 3.68856L11.9079 4.47081C11.956 4.60906 12.033 4.60819 12.0794 4.46994L12.3419 3.69119C12.3725 3.61517 12.4181 3.54609 12.476 3.48806C12.5339 3.43004 12.6028 3.38425 12.6788 3.35344L13.4663 3.08394C13.6045 3.03581 13.6045 2.95881 13.4663 2.91244L12.691 2.64994C12.615 2.61943 12.5458 2.57397 12.4876 2.51626C12.4295 2.45854 12.3835 2.38975 12.3524 2.31394L12.0811 1.52644V1.52556Z" fill="#B8C3D7"/>
</g>
<defs>
<clipPath id="clip0_3238_34075">
<rect width="14" height="14" fill="white"/>
</clipPath>
</defs>
</svg>
