<svg width="40" height="40" viewBox="0 0 40 40" fill="none" xmlns="http://www.w3.org/2000/svg">
<rect width="40" height="40" rx="2" fill="#F1FBF4"/>
<path fill-rule="evenodd" clip-rule="evenodd" d="M11.5006 7.30078H28.58C29.5846 7.30078 30.087 7.84093 30.087 8.85142V24.7024C30.087 25.7361 29.4172 26.4253 28.4125 26.4253H25.566C24.7287 26.4253 23.8915 27.2868 23.8915 28.1482V30.9896C23.8915 32.0234 23.2217 32.7125 22.2171 32.7125H11.5006C10.6634 32.7125 9.82617 31.8511 9.82617 30.9896V9.02371C9.82617 7.98995 10.496 7.30078 11.5006 7.30078ZM22.2171 22.2903C22.7194 22.2903 23.0543 21.9457 23.0543 21.4288C23.0543 20.7396 22.7194 20.3951 22.2171 20.3951H14.6821C14.1797 20.3951 13.8448 20.7396 13.8448 21.2565V21.4288C13.8448 21.9457 14.1797 22.2903 14.6821 22.2903H22.2171ZM25.9009 17.6384C26.4032 17.6384 26.7381 17.2938 26.7381 16.7769C26.7381 16.0877 26.4032 15.7431 25.7334 15.7431H14.5146C14.0123 15.7431 13.6774 16.0877 13.6774 16.6046V16.7769C13.6774 17.4289 14.1787 17.6384 14.6821 17.6384H25.9009ZM25.9009 12.9865C26.4032 12.9865 26.7381 12.6419 26.7381 12.125C26.7381 11.4358 26.4032 11.0912 25.9009 11.0912H14.6821C14.1797 11.0912 13.8448 11.4358 13.8448 11.9527V12.125C13.8448 12.6419 14.1797 12.9865 14.6821 12.9865H25.9009Z" fill="#14B529"/>
<path d="M25.0637 31.7655V29.3534C25.0637 28.3196 25.9009 27.4581 26.9056 27.4581H29.2498C30.0871 27.4581 30.4219 28.4919 29.9196 29.0088L26.5707 32.4546C26.0684 32.9715 25.0637 32.6269 25.0637 31.7655Z" fill="#14B529"/>
</svg>
