<svg width="16" height="11" viewBox="0 0 16 11" fill="none"
    xmlns="http://www.w3.org/2000/svg">
    <path d="M9.01136 3.30994C9.01136 3.20597 9.04903 3.09898 9.12435 2.989C9.19922 2.87948 9.28286 2.80739 9.37528 2.77273C9.71032 2.6572 10.0454 2.57055 10.3804 2.51278C10.7154 2.45502 11.0678 2.42614 11.4375 2.42614C11.6686 2.42614 11.8968 2.44046 12.1224 2.46911C12.3474 2.49823 12.5697 2.53589 12.7892 2.5821C12.8932 2.60521 12.9826 2.66297 13.0575 2.7554C13.1328 2.84782 13.1705 2.9518 13.1705 3.06733C13.1705 3.26373 13.1069 3.40814 12.9798 3.50057C12.8527 3.59299 12.691 3.6161 12.4946 3.56989C12.3329 3.53523 12.1626 3.50912 11.9837 3.49156C11.8044 3.47446 11.6223 3.46591 11.4375 3.46591C11.1371 3.46591 10.8425 3.49479 10.5537 3.55256C10.2649 3.61032 9.98759 3.68542 9.72187 3.77784C9.51392 3.85871 9.34363 3.85294 9.211 3.76051C9.07791 3.66809 9.01136 3.5179 9.01136 3.30994ZM9.01136 7.12244C9.01136 7.01847 9.04903 6.91149 9.12435 6.8015C9.19922 6.69198 9.28286 6.61989 9.37528 6.58523C9.71032 6.4697 10.0454 6.38305 10.3804 6.32528C10.7154 6.26752 11.0678 6.23864 11.4375 6.23864C11.6686 6.23864 11.8968 6.25296 12.1224 6.28161C12.3474 6.31073 12.5697 6.34839 12.7892 6.3946C12.8932 6.41771 12.9826 6.47547 13.0575 6.5679C13.1328 6.66032 13.1705 6.7643 13.1705 6.87983C13.1705 7.07623 13.1069 7.22064 12.9798 7.31307C12.8527 7.40549 12.691 7.4286 12.4946 7.38239C12.3329 7.34773 12.1626 7.32162 11.9837 7.30406C11.8044 7.28696 11.6223 7.27841 11.4375 7.27841C11.1371 7.27841 10.8425 7.30452 10.5537 7.35674C10.2649 7.4085 9.98759 7.48059 9.72187 7.57301C9.51392 7.65388 9.34363 7.65088 9.211 7.564C9.07791 7.47758 9.01136 7.3304 9.01136 7.12244ZM9.01136 5.21619C9.01136 5.11222 9.04903 5.00524 9.12435 4.89525C9.19922 4.78573 9.28286 4.71364 9.37528 4.67898C9.71032 4.56345 10.0454 4.4768 10.3804 4.41903C10.7154 4.36127 11.0678 4.33239 11.4375 4.33239C11.6686 4.33239 11.8968 4.34671 12.1224 4.37536C12.3474 4.40448 12.5697 4.44214 12.7892 4.48835C12.8932 4.51146 12.9826 4.56922 13.0575 4.66165C13.1328 4.75407 13.1705 4.85805 13.1705 4.97358C13.1705 5.16998 13.1069 5.31439 12.9798 5.40682C12.8527 5.49924 12.691 5.52235 12.4946 5.47614C12.3329 5.44148 12.1626 5.41537 11.9837 5.39781C11.8044 5.38071 11.6223 5.37216 11.4375 5.37216C11.1371 5.37216 10.8425 5.40104 10.5537 5.45881C10.2649 5.51657 9.98759 5.59167 9.72187 5.68409C9.51392 5.76496 9.34363 5.75919 9.211 5.66676C9.07791 5.57434 9.01136 5.42415 9.01136 5.21619ZM8.31818 9.04602C8.82652 8.80341 9.33785 8.62133 9.85219 8.49979C10.3661 8.37872 10.8945 8.31818 11.4375 8.31818C11.8534 8.31818 12.2608 8.35284 12.6596 8.42216C13.0579 8.49148 13.4593 8.59546 13.8636 8.73409V1.87159C13.4824 1.70985 13.0868 1.58854 12.6769 1.50767C12.2665 1.4268 11.8534 1.38636 11.4375 1.38636C10.8945 1.38636 10.3573 1.45568 9.82585 1.59432C9.29441 1.73295 8.79186 1.94091 8.31818 2.21818V9.04602ZM7.625 10.727C7.46326 10.727 7.3103 10.7069 7.16611 10.6667C7.02147 10.626 6.88561 10.571 6.75852 10.5017C6.30795 10.236 5.83428 10.0368 5.3375 9.90418C4.84072 9.77109 4.33239 9.70455 3.8125 9.70455C3.32727 9.70455 2.85083 9.76809 2.38316 9.89517C1.91503 10.0223 1.46723 10.2013 1.03977 10.4324C0.797159 10.5595 0.563326 10.5537 0.338273 10.4151C0.112758 10.2764 0 10.0742 0 9.80852V1.45568C0 1.3286 0.0318864 1.20729 0.0956591 1.09176C0.15897 0.976231 0.254167 0.889583 0.38125 0.831818C0.912689 0.554545 1.46723 0.346591 2.04489 0.207955C2.62254 0.0693183 3.21174 0 3.8125 0C4.48258 0 5.13833 0.0866477 5.77975 0.259943C6.42071 0.433239 7.0358 0.693182 7.625 1.03977C8.2142 0.693182 8.82952 0.433239 9.47094 0.259943C10.1119 0.0866477 10.7674 0 11.4375 0C12.0383 0 12.6275 0.0693183 13.2051 0.207955C13.7828 0.346591 14.3373 0.554545 14.8688 0.831818C14.9958 0.889583 15.0913 0.976231 15.155 1.09176C15.2183 1.20729 15.25 1.3286 15.25 1.45568V9.80852C15.25 10.0742 15.1375 10.2764 14.9124 10.4151C14.6869 10.5537 14.4528 10.5595 14.2102 10.4324C13.7828 10.2013 13.335 10.0223 12.8668 9.89517C12.3992 9.76809 11.9227 9.70455 11.4375 9.70455C10.9176 9.70455 10.4093 9.77109 9.9125 9.90418C9.41572 10.0368 8.94205 10.236 8.49148 10.5017C8.36439 10.571 8.22876 10.626 8.08458 10.6667C7.93994 10.7069 7.78674 10.727 7.625 10.727Z" />
</svg>
