<svg width="14" height="14" viewBox="0 0 14 14" fill="none" xmlns="http://www.w3.org/2000/svg">
<path d="M6.3441 9.84375C6.3441 10.0178 6.41324 10.1847 6.53631 10.3078C6.65938 10.4309 6.8263 10.5 7.00035 10.5C7.17439 10.5 7.34131 10.4309 7.46438 10.3078C7.58746 10.1847 7.6566 10.0178 7.6566 9.84375C7.6566 9.6697 7.58746 9.50278 7.46438 9.37971C7.34131 9.25664 7.17439 9.1875 7.00035 9.1875C6.8263 9.1875 6.65938 9.25664 6.53631 9.37971C6.41324 9.50278 6.3441 9.6697 6.3441 9.84375ZM6.56285 5.6875V8.20312C6.56285 8.26328 6.61206 8.3125 6.67222 8.3125H7.32847C7.38863 8.3125 7.43785 8.26328 7.43785 8.20312V5.6875C7.43785 5.62734 7.38863 5.57812 7.32847 5.57812H6.67222C6.61206 5.57812 6.56285 5.62734 6.56285 5.6875ZM13.0666 11.7031L7.37906 1.85938C7.29429 1.71309 7.148 1.64062 7.00035 1.64062C6.85269 1.64062 6.70503 1.71309 6.62163 1.85938L0.934136 11.7031C0.765971 11.9957 0.976518 12.3594 1.31285 12.3594H12.6878C13.0242 12.3594 13.2347 11.9957 13.0666 11.7031ZM2.35464 11.3217L7.00035 3.27988L11.646 11.3217H2.35464Z" fill="#B8C3D7"/>
</svg>
